<svg width="39" height="39" xmlns="http://www.w3.org/2000/svg" fill="none">
 <g>
  <title>ljh-design</title>
  <path d="m19.5,2c-2.2981,0 -4.5738,0.4527 -6.697,1.3321c-2.1232,0.8795 -4.0523,2.1685 -5.6774,3.7935c-1.625,1.6251 -2.914,3.5542 -3.7935,5.6774c-0.8794,2.1232 -1.3321,4.3989 -1.3321,6.697c0,2.2981 0.4527,4.5738 1.3321,6.697c0.8795,2.1232 2.1685,4.0523 3.7935,5.6774c1.6251,1.625 3.5542,2.914 5.6774,3.7935c2.1232,0.8794 4.3989,1.3321 6.697,1.3321l0,-8.75c-1.1491,0 -2.2869,-0.2263 -3.3485,-0.6661c-1.0616,-0.4397 -2.0262,-1.0842 -2.8387,-1.8967c-0.8125,-0.8125 -1.457,-1.7771 -1.8967,-2.8387c-0.4398,-1.0616 -0.6661,-2.1994 -0.6661,-3.3485c0,-1.1491 0.2263,-2.2869 0.6661,-3.3485c0.4397,-1.0616 1.0842,-2.0262 1.8967,-2.8387c0.8125,-0.8125 1.7771,-1.457 2.8387,-1.8967c1.0616,-0.4398 2.1994,-0.6661 3.3485,-0.6661l0,-8.75z" class="ccustom" fill="#0F52FF" id="svg_1"/>
  <path d="m18.81517,28.7909c5.27772,0 9.556,-4.08293 9.556,-9.11967c0,-5.03675 -4.27827,-9.11967 -9.556,-9.11967c-5.27772,0 -9.556,4.08293 -9.556,9.11967c0,5.03675 4.27827,9.11967 9.556,9.11967z" class="ccustom" fill="#0F52FF" id="svg_2" stroke="null" transform="rotate(-4.95932 18.8152 19.6712)"/>
  <path d="m2,19.5c0,2.2981 0.4527,4.5738 1.3321,6.697c0.8795,2.1232 2.1685,4.0523 3.7935,5.6774c1.6251,1.625 3.5542,2.914 5.6774,3.7935c2.1232,0.8794 4.3989,1.3321 6.697,1.3321c2.2981,0 4.5738,-0.4527 6.697,-1.3321c2.1232,-0.8795 4.0523,-2.1685 5.6774,-3.7935c1.625,-1.6251 2.914,-3.5542 3.7935,-5.6774c0.8794,-2.1232 1.3321,-4.3989 1.3321,-6.697l-8.75,0c0,1.1491 -0.2263,2.2869 -0.6661,3.3485c-0.4397,1.0616 -1.0842,2.0262 -1.8967,2.8387c-0.8125,0.8125 -1.7771,1.457 -2.8387,1.8967c-1.0616,0.4398 -2.1994,0.6661 -3.3485,0.6661c-1.1491,0 -2.2869,-0.2263 -3.3485,-0.6661c-1.0616,-0.4397 -2.0262,-1.0842 -2.8387,-1.8967c-0.8125,-0.8125 -1.457,-1.7771 -1.8967,-2.8387c-0.4398,-1.0616 -0.6661,-2.1994 -0.6661,-3.3485l-8.75,0z" class="ccompli1" fill="#5BD0F4" id="svg_3"/>
  <path d="m28.75806,19.5c0,-2.36454 -0.95738,-4.63218 -2.66138,-6.30422c-1.70415,-1.67204 -4.01536,-2.61137 -6.42532,-2.61137c-2.40996,0 -4.72116,0.93934 -6.42532,2.61137c-1.70415,1.67204 -2.66153,3.93968 -2.66153,6.30422l9.08685,0l9.0867,0z" class="ccompli1" fill="#5BD0F4" id="svg_4" stroke="null"/>
  <path d="m60.52316,15.66473l-2.1735,0l0,12.075l2.1735,0l0,-12.075z" class="ccustom" fill="#0F52FF" id="svg_5"/>
  <path d="m61.6,23.46173c0,2.7945 1.932,4.5195 4.485,4.5195c2.553,0 4.485,-1.725 4.485,-4.5195c0,-2.7945 -1.932,-4.5195 -4.485,-4.5195c-2.553,0 -4.485,1.725 -4.485,4.5195zm2.1735,0c0,-1.656 0.966,-2.622 2.3115,-2.622c1.3455,0 2.3115,0.966 2.3115,2.622c0,1.656 -0.966,2.622 -2.3115,2.622c-1.3455,0 -2.3115,-0.966 -2.3115,-2.622z" class="ccustom" fill="#0F52FF" id="svg_6"/>
  <line fill="none" x1="-15.26713" y1="-39.13014" x2="-2.59589" y2="-25.43151" id="svg_14"/>
  <line fill="none" x1="-48.14384" y1="-28.17124" x2="-2.93836" y2="-6.5959" id="svg_15"/>
  <line fill="#0F52FF" x1="-22.45891" y1="-19.26713" x2="12.81507" y2="-33.65069" id="svg_16"/>
 </g>

</svg>